<?xml version="1.0" encoding="UTF-8"?>
<svg xmlns="http://www.w3.org/2000/svg" viewBox="0 0 250 259.568">
  <path d="M160.95 115.258L78.174 67.215a7.26 7.26 0 0 0-10.908 6.264l-.209 95.7a7.264 7.264 0 0 0 10.882 6.315l82.985-47.657a7.263 7.263 0 0 0 .026-12.579z"/><path d="M247.208 97.575a16.194 16.194 0 0 0-7.579-13.533v-.051l-7.849-4.557-.015-.005-134.42-78a10.6 10.6 0 0 0-9.771-.448L71.857 8.255a10.5 10.5 0 0 0-4.71 4.363c-.066.107-.153.189-.219.3-.056.092-.082.194-.133.29l-.082.178a9.589 9.589 0 0 0-.362 7.957 10.566 10.566 0 0 0 4.633 5.693l127.1 73.811s8.568 4.23 9.664 17.238v.015l.02.148.005-.005a6.737 6.737 0 0 0 9.547 5.525l-.015.021.1-.051.128-.071 22.35-12.029-.005-.107a16.159 16.159 0 0 0 7.33-13.956zM8.59 7.974A16.2 16.2 0 0 0 .639 21.292l-.041.026-.036 9.073v.02l-.561 155.41a10.593 10.593 0 0 0 4.48 8.7l14.144 9.99a10.5 10.5 0 0 0 6.132 1.906c.122.005.24.041.367.041.107 0 .209-.031.316-.031l.2-.021a9.6 9.6 0 0 0 7.08-3.655 10.552 10.552 0 0 0 2.62-6.85l.586-146.979s-.6-9.537 10.123-16.973h.01l.122-.092h-.01a6.736 6.736 0 0 0 .025-11.035l.031.005-.1-.061-.127-.077-21.571-13.37-.092.051a16.164 16.164 0 0 0-15.747.604zM53.698 257.515a16.2 16.2 0 0 0 15.51.148l.046.025 7.849-4.542.015-.01 134.5-77.868a10.594 10.594 0 0 0 5.25-8.252l1.5-17.253a10.517 10.517 0 0 0-1.442-6.259c-.061-.107-.092-.224-.153-.336-.056-.092-.127-.163-.183-.255l-.117-.163a9.6 9.6 0 0 0-6.728-4.271 10.552 10.552 0 0 0-7.238 1.193L75.274 213.263s-7.926 5.331-19.761-.184l-.01-.005-.138-.061v.01a6.732 6.732 0 0 0-9.537 5.541l-.01-.026-.005.112-.005.148-.668 25.373.092.051a16.156 16.156 0 0 0 8.466 13.293z" fill="#304e82"/><path d="M160.95 115.258a7.263 7.263 0 0 1-.026 12.58l-82.985 47.657a7.265 7.265 0 0 1-10.882-6.315l.209-95.7a7.26 7.26 0 0 1 10.908-6.264z" fill="#ec492d"/>
</svg>
