<svg xmlns="http://www.w3.org/2000/svg" viewBox="0 0 1195.219 259.568"><path data-name="Path 735" d="M354.825 199.084q-16.094 0-24.14-8.833t-8.043-26.377V90.028h-19.646V61.153h19.644V21.192l32.708-15.686v55.65h30.593v28.875h-30.593v67.913q0 6.33 2.569 9.363t8.109 3.033q9.756 0 21.362-6.065l-3.823 28.747a55.125 55.125 0 0 1-13.181 4.552 74.931 74.931 0 0 1-15.559 1.51z" fill="#304e82"/><path data-name="Path 736" d="M463.238 199.085q-19.382 0-33.427-8.706a57 57 0 0 1-21.627-24.593q-7.584-15.892-7.584-37.382 0-21.76 7.717-37.586a56.663 56.663 0 0 1 21.754-24.324q14.045-8.517 33.167-8.507a63.9 63.9 0 0 1 29.67 6.851 50.753 50.753 0 0 1 21.234 21.036q7.913 14.183 7.911 36.072c0 2.283-.061 5.077-.2 8.369s-.372 6.616-.724 9.955h-87.954a37.864 37.864 0 0 0 4.287 16.153 27.005 27.005 0 0 0 10.356 10.754A30.465 30.465 0 0 0 463.379 171a40.187 40.187 0 0 0 16.744-3.231 40.824 40.824 0 0 0 13.451-10.352l18.987 19.649a67.385 67.385 0 0 1-20.964 15.954q-12.268 6.062-28.359 6.065zm-29.935-84.53h56.842a39.5 39.5 0 0 0-3.96-15.23 23.538 23.538 0 0 0-9.231-9.827 28.3 28.3 0 0 0-14.374-3.425 29.1 29.1 0 0 0-19.782 7.121q-8.173 7.125-9.495 21.361z" fill="#304e82"/><path d="M545.546 195.92V61.153h32.963v12.921a41.171 41.171 0 0 1 15.5-12.065 50.185 50.185 0 0 1 20.638-4.022q22.547 0 34.813 13.91t12.263 40.022v84h-32.83v-73.846q0-17.012-5.877-24.858t-18.258-7.844q-13.449 0-19.848 7.844t-6.4 24.328v74.376zM747.318 199.085q-28.48 0-44.966-18.859t-16.489-51.557q0-21.63 7.518-37.514a56.814 56.814 0 0 1 21.31-24.533q13.762-8.64 32.631-8.635 18.724 0 32.443 8.568t21.1 24.4q7.393 15.818 7.386 37.581 0 21.889-7.319 37.713a54.931 54.931 0 0 1-21.041 24.329q-13.721 8.509-32.573 8.507zm0-31.515q13.319 0 20.7-10.286t7.391-28.747q0-18.457-7.457-28.814t-20.638-10.352q-13.319 0-20.837 10.418t-7.518 28.88q0 18.2 7.518 28.549t20.841 10.352zM864.102 195.918L814.783 61.152h34.161l28.222 80.172a56.589 56.589 0 0 1 2.1 6.2l1.85 6.6q.925-3.3 1.911-6.6t1.911-6.2l28.1-80.172h34.018l-49.324 134.766zM1015.912 199.085q-28.488 0-44.966-18.859t-16.484-51.557q0-21.63 7.513-37.514a56.76 56.76 0 0 1 21.3-24.532q13.785-8.64 32.642-8.635 18.716 0 32.438 8.568t21.1 24.4q7.378 15.818 7.375 37.581 0 21.889-7.314 37.713t-21.043 24.328q-13.7 8.509-32.561 8.507zm0-31.515q13.311 0 20.7-10.286t7.385-28.747q0-18.457-7.447-28.814t-20.638-10.352q-13.319 0-20.837 10.418t-7.513 28.88q0 18.2 7.513 28.549t20.837 10.352zM1143.53 199.085a70.875 70.875 0 0 1-30.261-6.723q-14.443-6.728-22.881-18.068l21.622-18.2a51.116 51.116 0 0 0 15.562 11.275 39.652 39.652 0 0 0 16.886 4.154q10.016 0 15.418-3.364a10.545 10.545 0 0 0 5.418-9.429 10.746 10.746 0 0 0-2.579-7.049q-2.569-3.1-9.032-6.336a178.366 178.366 0 0 0-18.2-7.452q-22.685-8.3-32.178-18-9.5-9.687-9.5-24.593 0-16.614 13.451-26.969t35.083-10.347a66.268 66.268 0 0 1 27.224 5.535 58.886 58.886 0 0 1 21.433 16.219l-21.5 17.8q-11.858-12-27.687-12-8.051 0-12.921 2.966-4.886 2.967-4.888 7.977 0 4.878 5.744 8.7t21.423 8.971q15.559 4.878 25.256 11.076t14.243 14.384a38.1 38.1 0 0 1 4.552 18.859q0 18.984-13.777 29.8t-37.911 10.814z" fill="#304e82"/><path d="M160.95 115.258L78.174 67.215a7.26 7.26 0 0 0-10.908 6.264l-.209 95.7a7.264 7.264 0 0 0 10.882 6.315l82.985-47.657a7.263 7.263 0 0 0 .026-12.579z"/><path d="M247.208 97.575a16.194 16.194 0 0 0-7.579-13.533v-.051l-7.849-4.557-.015-.005-134.42-78a10.6 10.6 0 0 0-9.771-.448L71.857 8.255a10.5 10.5 0 0 0-4.71 4.363c-.066.107-.153.189-.219.3-.056.092-.082.194-.133.29l-.082.178a9.589 9.589 0 0 0-.362 7.957 10.566 10.566 0 0 0 4.633 5.693l127.1 73.811s8.568 4.23 9.664 17.238v.015l.02.148.005-.005a6.737 6.737 0 0 0 9.547 5.525l-.015.021.1-.051.128-.071 22.35-12.029-.005-.107a16.159 16.159 0 0 0 7.33-13.956zM8.59 7.974A16.2 16.2 0 0 0 .639 21.292l-.041.026-.036 9.073v.02l-.561 155.41a10.593 10.593 0 0 0 4.48 8.7l14.144 9.99a10.5 10.5 0 0 0 6.132 1.906c.122.005.24.041.367.041.107 0 .209-.031.316-.031l.2-.021a9.6 9.6 0 0 0 7.08-3.655 10.552 10.552 0 0 0 2.62-6.85l.586-146.979s-.6-9.537 10.123-16.973h.01l.122-.092h-.01a6.736 6.736 0 0 0 .025-11.035l.031.005-.1-.061-.127-.077-21.571-13.37-.092.051a16.164 16.164 0 0 0-15.747.604zM53.698 257.515a16.2 16.2 0 0 0 15.51.148l.046.025 7.849-4.542.015-.01 134.5-77.868a10.594 10.594 0 0 0 5.25-8.252l1.5-17.253a10.517 10.517 0 0 0-1.442-6.259c-.061-.107-.092-.224-.153-.336-.056-.092-.127-.163-.183-.255l-.117-.163a9.6 9.6 0 0 0-6.728-4.271 10.552 10.552 0 0 0-7.238 1.193L75.274 213.263s-7.926 5.331-19.761-.184l-.01-.005-.138-.061v.01a6.732 6.732 0 0 0-9.537 5.541l-.01-.026-.005.112-.005.148-.668 25.373.092.051a16.156 16.156 0 0 0 8.466 13.293z" fill="#304e82"/><path d="M160.95 115.258a7.263 7.263 0 0 1-.026 12.58l-82.985 47.657a7.265 7.265 0 0 1-10.882-6.315l.209-95.7a7.26 7.26 0 0 1 10.908-6.264z" fill="#ec492d"/></svg>